<?xml version="1.0" encoding="UTF-8"?>
<svg version="1.1" xmlns="http://www.w3.org/2000/svg" width="524" height="468">
<path d="M0 0 C1.14805115 -0.00852997 2.29610229 -0.01705994 3.47894287 -0.02584839 C5.35470253 -0.02448883 5.35470253 -0.02448883 7.26835632 -0.02310181 C8.60585403 -0.0290898 9.94334828 -0.03589597 11.28083801 -0.04345703 C14.90701505 -0.06109803 18.53309764 -0.06581164 22.15931344 -0.0670886 C24.42732676 -0.06851198 26.69531621 -0.07278515 28.96332359 -0.07808304 C36.88288772 -0.09657792 44.8023846 -0.10475444 52.7219696 -0.10317993 C60.09232025 -0.10197908 67.46237779 -0.12307155 74.8326543 -0.15466726 C81.16999664 -0.18086211 87.50724345 -0.19154587 93.84463948 -0.19026911 C97.62541622 -0.18976036 101.40593246 -0.19539477 105.18665504 -0.21662521 C108.7449725 -0.23606172 112.30278243 -0.23609576 115.86111832 -0.22159195 C117.77993492 -0.21852082 119.69875186 -0.23514295 121.61749268 -0.25247192 C128.64209864 -0.20151756 133.29493831 0.44949783 139.25151062 4.26742554 C144.20283925 9.34905228 145.49933146 14.04119408 145.51652527 21.02989197 C145.52309717 22.03049531 145.52309717 22.03049531 145.52980185 23.05131286 C145.5420909 25.27909962 145.5403159 27.5066499 145.53862 29.73446655 C145.54464608 31.33460844 145.5515708 32.93474715 145.55932617 34.53488159 C145.57420195 37.97684724 145.58296101 41.41875499 145.58703613 44.8607502 C145.59375281 50.30210793 145.61550989 55.74334174 145.63957214 61.18464661 C145.69268849 73.71565347 145.72608796 86.24669849 145.75933075 98.777771 C145.79000616 110.2659053 145.82482187 121.75398639 145.87564135 133.24205154 C145.89900514 138.6525815 145.91273459 144.06302506 145.91913605 149.47360051 C145.92506801 152.83677787 145.93915826 156.19988498 145.95548058 159.56302643 C145.96136379 161.12390927 145.9638273 162.68480926 145.96264076 164.24570274 C145.96148366 166.37459927 145.97248108 168.50309997 145.98649597 170.63194275 C145.99089565 172.41969793 145.99089565 172.41969793 145.99538422 174.24356937 C146.24754686 177.2206289 146.51466921 178.85912243 148.25151062 181.26742554 C151.71940546 183.82365673 155.2746094 183.51897028 159.46318054 183.52139282 C160.55438218 183.52607279 160.55438218 183.52607279 161.66762829 183.53084731 C164.10582768 183.53882613 166.54377811 183.53250418 168.98197937 183.5262146 C170.72975307 183.52892451 172.47752563 183.53248545 174.22529602 183.53683472 C178.97313862 183.54596093 183.72089441 183.5424135 188.46873856 183.53607655 C193.43433621 183.53101777 198.39992636 183.53570766 203.36552429 183.53884888 C211.70481197 183.54248887 220.04406425 183.53768853 228.38334656 183.52816772 C238.02865149 183.51728312 247.67387188 183.52080867 257.31917477 183.53182054 C265.59611453 183.54089244 273.87302883 183.54217916 282.14997196 183.5369432 C287.09532113 183.53382297 292.04063055 183.53341562 296.98597717 183.54001617 C301.63495726 183.54578759 306.2838282 183.54179646 310.93279648 183.53022766 C312.64042861 183.52757999 314.3480699 183.528348 316.05569839 183.53275299 C318.38387044 183.53820565 320.71169113 183.53137785 323.0398407 183.52139282 C324.34359146 183.52063877 325.64734222 183.51988472 326.99060059 183.51910782 C330.08671607 183.28014465 331.77361558 183.09391478 334.25151062 181.26742554 C336.67042454 177.91317422 336.50192609 174.69213154 336.50306702 170.65213013 C336.50603716 169.98873792 336.50900729 169.32534571 336.51206744 168.64185071 C336.5197022 166.42027462 336.5132156 164.19896333 336.50688171 161.97738647 C336.50963191 160.38388388 336.51331199 158.79038266 336.51785278 157.19688416 C336.52596498 153.76526793 336.52813316 150.33371686 336.52590561 146.90209198 C336.52307235 141.47232238 336.53742571 136.04268289 336.55488586 130.61294556 C336.60190927 115.1727596 336.62584818 99.73258225 336.63237 84.29232788 C336.63612401 75.76475652 336.654182 67.23733219 336.68746436 58.70982385 C336.70765462 53.31619075 336.71006007 47.92293749 336.69918418 42.52928209 C336.69657115 39.16694541 336.71061019 35.80482836 336.72926521 32.44254875 C336.73457351 30.88818349 336.73311374 29.33377742 336.72422981 27.77942848 C336.64728588 13.13065292 336.64728588 13.13065292 341.25151062 6.26742554 C345.95889022 1.68074798 350.48737879 0.02193167 357 0 C358.14805115 -0.00852997 359.29610229 -0.01705994 360.47894287 -0.02584839 C361.72944931 -0.02494202 362.97995575 -0.02403564 364.26835632 -0.02310181 C365.60585403 -0.0290898 366.94334828 -0.03589597 368.28083801 -0.04345703 C371.90701505 -0.06109803 375.53309764 -0.06581164 379.15931344 -0.0670886 C381.42732676 -0.06851198 383.69531621 -0.07278515 385.96332359 -0.07808304 C393.88288772 -0.09657792 401.8023846 -0.10475444 409.7219696 -0.10317993 C417.09232025 -0.10197908 424.46237779 -0.12307155 431.8326543 -0.15466726 C438.16999664 -0.18086211 444.50724345 -0.19154587 450.84463948 -0.19026911 C454.62541622 -0.18976036 458.40593246 -0.19539477 462.18665504 -0.21662521 C465.7449725 -0.23606172 469.30278243 -0.23609576 472.86111832 -0.22159195 C474.77993492 -0.21852082 476.69875186 -0.23514295 478.61749268 -0.25247192 C485.64209864 -0.20151756 490.29493831 0.44949783 496.25151062 4.26742554 C501.37116117 9.52180373 502.55163501 14.53546774 502.50877953 21.70072651 C502.5122856 22.44360663 502.51579167 23.18648676 502.51940399 23.9518784 C502.52873117 26.44900616 502.52379131 28.94590139 502.51893616 31.44303894 C502.52267175 33.24831717 502.52727291 35.05359379 502.5326668 36.85886782 C502.54492341 41.82603398 502.54463321 46.79313293 502.54227805 51.76031077 C502.54187056 57.11490142 502.55290257 62.46947033 502.56239319 67.8240509 C502.57901869 78.31705719 502.58450343 88.81004102 502.58561794 99.30305938 C502.58656767 107.83071703 502.5906742 116.35836726 502.5970192 124.88602257 C502.61463573 149.05379773 502.62385741 173.22155511 502.62235825 197.38933674 C502.62223838 199.34439963 502.62223838 199.34439963 502.62211609 201.33895874 C502.62203433 202.64392202 502.62195257 203.9488853 502.62186833 205.29339292 C502.62105528 226.44617568 502.64019656 247.59888725 502.66839282 268.75164942 C502.69710394 290.46164966 502.7109341 312.17161517 502.70920527 333.88163489 C502.70854076 346.07398622 502.71405969 358.26626293 502.73556137 370.45859718 C502.75374983 380.83888095 502.75813969 391.21905627 502.74454252 401.59934906 C502.73800114 406.89652284 502.73793796 412.19348842 502.75524902 417.49064255 C502.77093292 422.33971431 502.76816404 427.18841198 502.75068076 432.03747436 C502.74760053 433.79183144 502.75128161 435.54621612 502.76240091 437.30054066 C502.82091027 447.18634861 502.76487911 454.55049211 496.37651062 462.64242554 C492.14771278 465.87621212 487.59195802 466.51729252 482.38276672 466.53485107 C480.65862801 466.54764603 480.65862801 466.54764603 478.8996582 466.56069946 C477.65274704 466.55979309 476.40583588 466.55888672 475.12113953 466.55795288 C473.78349433 466.5639428 472.44585258 466.57074941 471.10821533 466.57830811 C467.48622955 466.59592732 463.86433836 466.60066173 460.24231386 466.60193968 C457.97647279 466.60336404 455.71065554 466.60763902 453.4448204 466.61293411 C445.53173554 466.63142023 437.61871793 466.63960642 429.70561218 466.63803101 C422.34262512 466.63682968 414.97993123 466.65793372 407.61701834 466.68951833 C401.28390208 466.71571226 394.95088141 466.72639702 388.61771142 466.72512019 C384.84030294 466.72461151 381.0631552 466.73024238 377.28580093 466.75147629 C373.73157392 466.77091182 370.17785501 466.7709475 366.62360954 466.75644302 C364.7071879 466.75337197 362.79076592 466.76999378 360.87442017 466.787323 C353.85357079 466.73633217 349.20527056 466.08240771 343.25151062 462.26742554 C338.31335806 457.19932159 337.00375358 452.51416343 336.98649597 445.54292297 C336.9821147 444.87993763 336.97773343 444.21695229 336.97321939 443.53387648 C336.96093115 441.31990882 336.96270529 439.10617913 336.96440125 436.8921814 C336.95837511 435.30189158 336.95145038 433.71160495 336.94369507 432.12132263 C336.92881967 428.70063785 336.92006033 425.28001132 336.91598511 421.8592968 C336.90926822 416.45154365 336.88751091 411.04391517 336.8634491 405.63621521 C336.81033362 393.18261385 336.77693348 380.72897411 336.74369049 368.2753067 C336.71301479 356.85808562 336.67819871 345.44091808 336.62737989 334.02376658 C336.6040166 328.6466881 336.59028678 323.26969654 336.58388519 317.89257228 C336.5779531 314.55015365 336.56386273 311.2078057 336.54754066 307.8654232 C336.54165761 306.31421576 336.53919391 304.76299106 336.54038048 303.21177292 C336.54153764 301.09601267 336.53053967 298.98065064 336.51652527 296.86494446 C336.51359215 295.68048202 336.51065903 294.49601957 336.50763702 293.27566433 C336.25483491 290.30646977 335.98253703 288.67099552 334.25151062 286.26742554 C330.78361578 283.71119434 327.22841184 284.0158808 323.0398407 284.01345825 C321.94863906 284.00877828 321.94863906 284.00877828 320.83539295 284.00400376 C318.39719356 283.99602494 315.95924313 284.0023469 313.52104187 284.00863647 C311.77326817 284.00592656 310.02549561 284.00236563 308.27772522 283.99801636 C303.52988262 283.98889015 298.78212683 283.99243758 294.03428268 283.99877453 C289.06868504 284.0038333 284.10309489 283.99914341 279.13749695 283.9960022 C270.79820927 283.9923622 262.45895699 283.99716254 254.11967468 284.00668335 C244.47436975 284.01756796 234.82914936 284.01404241 225.18384647 284.00303054 C216.90690671 283.99395863 208.62999241 283.99267192 200.35304928 283.99790788 C195.40770011 284.00102811 190.46239069 284.00143546 185.51704407 283.9948349 C180.86806398 283.98906348 176.21919304 283.99305461 171.57022476 284.00462341 C169.86259263 284.00727109 168.15495134 284.00650308 166.44732285 284.00209808 C164.1191508 283.99664543 161.79133011 284.00347323 159.46318054 284.01345825 C158.15942978 284.0142123 156.85567902 284.01496635 155.51242065 284.01574326 C152.41630517 284.25470643 150.72940566 284.4409363 148.25151062 286.26742554 C145.84144853 289.61403528 146.00109944 292.81474234 145.99995422 296.84475708 C145.99698408 297.50406574 145.99401395 298.16337439 145.9909538 298.8426621 C145.98331943 301.05041921 145.98980547 303.25790984 145.99613953 305.46566772 C145.99338931 307.04931824 145.98970922 308.63296738 145.98516846 310.21661377 C145.97705642 313.62694919 145.97488804 317.03721904 145.97711563 320.44756317 C145.97994897 325.84372817 145.96559522 331.23976225 145.94813538 336.63589478 C145.90111277 351.98049956 145.87717316 367.32509567 145.87065125 382.66976929 C145.86689715 391.14460337 145.84883851 399.61928951 145.81555688 408.09406018 C145.79536738 413.45424246 145.7929608 418.81404254 145.80383706 424.17424726 C145.80645021 427.51582556 145.79241045 430.85718289 145.77375603 434.19870377 C145.76844803 435.74339364 145.76990699 437.28812456 145.77879143 438.832798 C145.82862755 448.26117272 145.40708158 455.00370232 139.37651062 462.64242554 C135.14771278 465.87621212 130.59195802 466.51729252 125.38276672 466.53485107 C123.65862801 466.54764603 123.65862801 466.54764603 121.8996582 466.56069946 C120.65274704 466.55979309 119.40583588 466.55888672 118.12113953 466.55795288 C116.78349433 466.5639428 115.44585258 466.57074941 114.10821533 466.57830811 C110.48622955 466.59592732 106.86433836 466.60066173 103.24231386 466.60193968 C100.97647279 466.60336404 98.71065554 466.60763902 96.4448204 466.61293411 C88.53173554 466.63142023 80.61871793 466.63960642 72.70561218 466.63803101 C65.34262512 466.63682968 57.97993123 466.65793372 50.61701834 466.68951833 C44.28390208 466.71571226 37.95088141 466.72639702 31.61771142 466.72512019 C27.84030294 466.72461151 24.0631552 466.73024238 20.28580093 466.75147629 C16.73157392 466.77091182 13.17785501 466.7709475 9.62360954 466.75644302 C7.7071879 466.75337197 5.79076592 466.76999378 3.87442017 466.787323 C-3.14642921 466.73633217 -7.79472944 466.08240771 -13.74848938 462.26742554 C-18.86813993 457.01304734 -20.04861377 451.99938333 -20.00575829 444.83412457 C-20.00926436 444.09124444 -20.01277043 443.34836432 -20.01638275 442.58297268 C-20.02570993 440.08584491 -20.02077007 437.58894968 -20.01591492 435.09181213 C-20.01965051 433.2865339 -20.02425167 431.48125729 -20.02964556 429.67598325 C-20.04190217 424.70881709 -20.04161196 419.74171815 -20.03925681 414.77454031 C-20.03884932 409.41994965 -20.04988133 404.06538074 -20.05937195 398.71080017 C-20.07599745 388.21779388 -20.08148219 377.72481006 -20.0825967 367.2317917 C-20.08354643 358.70413404 -20.08765296 350.17648381 -20.09399796 341.64882851 C-20.11161449 317.48105335 -20.12083617 293.31329596 -20.11933701 269.14551433 C-20.1192571 267.84213907 -20.11917718 266.53876381 -20.11909485 265.19589233 C-20.11901309 263.89092905 -20.11893133 262.58596578 -20.11884709 261.24145816 C-20.11803404 240.0886754 -20.13717532 218.93596382 -20.16537158 197.78320166 C-20.1940827 176.07320141 -20.20791286 154.3632359 -20.20618403 132.65321618 C-20.20551952 120.46086485 -20.21103845 108.26858814 -20.23254013 96.07625389 C-20.25072859 85.69597012 -20.25511845 75.3157948 -20.24152128 64.93550202 C-20.2349799 59.63832823 -20.23491672 54.34136265 -20.25222778 49.04420853 C-20.26791168 44.19513676 -20.2651428 39.3464391 -20.24765952 34.49737672 C-20.24457929 32.74301964 -20.24826037 30.98863496 -20.25937967 29.23431041 C-20.35608843 12.89428884 -20.35608843 12.89428884 -15.74848938 6.26742554 C-11.04110978 1.68074798 -6.51262121 0.02193167 0 0 Z M1.25151062 20.26742554 C1.25151062 37.09742554 1.25151062 53.92742554 1.25151062 71.26742554 C17.75151062 71.26742554 34.25151062 71.26742554 51.25151062 71.26742554 C51.74651062 66.31742554 51.74651062 66.31742554 52.25151062 61.26742554 C53.90122986 58.67654419 53.90122986 58.67654419 56.25151062 57.26742554 C59.27610779 56.7484436 59.27610779 56.7484436 62.85600281 56.7215271 C63.51007614 56.71118942 64.16414948 56.70085175 64.83804321 56.69020081 C66.99174257 56.66079279 69.14450135 56.6592742 71.29838562 56.65805054 C72.79484345 56.64306736 74.29128474 56.62633992 75.78770447 56.60794067 C79.72008528 56.56426952 83.65224303 56.54426886 87.58482361 56.52920532 C92.30652311 56.50619009 97.02797668 56.45376079 101.7494812 56.40626526 C108.91688854 56.33745708 116.08358966 56.30600423 123.25151062 56.26742554 C123.25151062 44.38742554 123.25151062 32.50742554 123.25151062 20.26742554 C82.99151062 20.26742554 42.73151062 20.26742554 1.25151062 20.26742554 Z M373.25151062 56.26742554 C371.68904853 59.39234972 372.04652935 62.72937987 372.01322937 66.16195679 C372.00515762 66.94632614 371.99708588 67.7306955 371.98876953 68.53883362 C371.97493 70.20070181 371.96420725 71.8625984 371.9563446 73.52450562 C371.93914709 76.05980689 371.89526407 78.59379868 371.85112 81.12875366 C371.84099147 82.74397845 371.83247586 84.35921433 371.82572937 85.97445679 C371.80822128 86.72983231 371.7907132 87.48520782 371.77267456 88.26347351 C371.78791728 91.98309094 372.12093038 94.06445532 374.15312195 97.22323608 C378.85045434 101.79924122 385.1926918 100.52851889 391.37236023 100.56259155 C393.54561301 100.57978003 395.71733408 100.62366361 397.8901825 100.66781616 C399.27754112 100.67794579 400.66491266 100.68646105 402.05229187 100.69320679 C403.31210876 100.70778931 404.57192566 100.72237183 405.86991882 100.73739624 C409.83040522 100.18697127 411.44470875 99.05541376 414.25151062 96.26742554 C415.81397271 93.14250135 415.45649189 89.80547121 415.48979187 86.37289429 C415.49786362 85.58852493 415.50593536 84.80415558 415.51425171 83.99601746 C415.52809124 82.33414927 415.53881399 80.67225267 415.54667664 79.01034546 C415.56387415 76.47504419 415.60775717 73.94105239 415.65190125 71.40609741 C415.66202977 69.79087262 415.67054538 68.17563675 415.67729187 66.56039429 C415.69479996 65.80501877 415.71230804 65.04964325 415.73034668 64.27137756 C415.71510396 60.55176013 415.38209086 58.47039575 413.34989929 55.31161499 C408.6525669 50.73560986 402.31032944 52.00633218 396.13066101 51.97225952 C393.95740823 51.95507105 391.78568716 51.91118747 389.61283875 51.86703491 C388.22548012 51.85690528 386.83810858 51.84839002 385.45072937 51.84164429 C384.19091248 51.82706177 382.93109558 51.81247925 381.63310242 51.79745483 C377.67261602 52.34787981 376.05831249 53.47943731 373.25151062 56.26742554 Z M1.25151062 84.26742554 C1.25151062 100.43742554 1.25151062 116.60742554 1.25151062 133.26742554 C17.75151062 133.26742554 34.25151062 133.26742554 51.25151062 133.26742554 C51.58151062 130.29742554 51.91151062 127.32742554 52.25151062 124.26742554 C53.90122986 121.73904419 53.90122986 121.73904419 56.25151062 120.26742554 C59.27610779 119.7484436 59.27610779 119.7484436 62.85600281 119.7215271 C63.51007614 119.71118942 64.16414948 119.70085175 64.83804321 119.69020081 C66.99174257 119.66079279 69.14450135 119.6592742 71.29838562 119.65805054 C72.79484345 119.64306736 74.29128474 119.62633992 75.78770447 119.60794067 C79.72008528 119.56426952 83.65224303 119.54426886 87.58482361 119.52920532 C91.60015552 119.50963318 95.61524657 119.46766337 99.63041687 119.42758179 C107.50408125 119.3522821 115.3775713 119.30406026 123.25151062 119.26742554 C123.25151062 112.00742554 123.25151062 104.74742554 123.25151062 97.26742554 C121.24282898 97.25807983 119.23414734 97.24873413 117.16459656 97.23910522 C110.52674905 97.20533289 103.88921237 97.14978287 97.25161362 97.0835228 C93.22731143 97.04401887 89.20322899 97.01184497 85.17875671 96.99642944 C81.29461821 96.98128164 77.41108374 96.94687068 73.52721405 96.89911652 C72.04571534 96.88428312 70.5641304 96.87638339 69.08255768 96.87554169 C67.00638491 96.87317593 64.93188685 96.84613347 62.85600281 96.81332397 C61.08395477 96.80000031 61.08395477 96.80000031 59.27610779 96.78640747 C56.25151062 96.26742554 56.25151062 96.26742554 53.90122986 94.73330688 C52.25151062 92.26742554 52.25151062 92.26742554 51.25151062 84.26742554 C34.75151062 84.26742554 18.25151062 84.26742554 1.25151062 84.26742554 Z M429.25151062 96.26742554 C427.68904853 99.39234972 428.04652935 102.72937987 428.01322937 106.16195679 C428.00515762 106.94632614 427.99708588 107.7306955 427.98876953 108.53883362 C427.97493 110.20070181 427.96420725 111.8625984 427.9563446 113.52450562 C427.93914709 116.05980689 427.89526407 118.59379868 427.85112 121.12875366 C427.84099147 122.74397845 427.83247586 124.35921433 427.82572937 125.97445679 C427.80822128 126.72983231 427.7907132 127.48520782 427.77267456 128.26347351 C427.78791728 131.98309094 428.12093038 134.06445532 430.15312195 137.22323608 C434.85045434 141.79924122 441.1926918 140.52851889 447.37236023 140.56259155 C449.54561301 140.57978003 451.71733408 140.62366361 453.8901825 140.66781616 C455.27754112 140.67794579 456.66491266 140.68646105 458.05229187 140.69320679 C459.31210876 140.70778931 460.57192566 140.72237183 461.86991882 140.73739624 C465.83040522 140.18697127 467.44470875 139.05541376 470.25151062 136.26742554 C471.81397271 133.14250135 471.45649189 129.80547121 471.48979187 126.37289429 C471.49786362 125.58852493 471.50593536 124.80415558 471.51425171 123.99601746 C471.52809124 122.33414927 471.53881399 120.67225267 471.54667664 119.01034546 C471.56387415 116.47504419 471.60775717 113.94105239 471.65190125 111.40609741 C471.66202977 109.79087262 471.67054538 108.17563675 471.67729187 106.56039429 C471.69479996 105.80501877 471.71230804 105.04964325 471.73034668 104.27137756 C471.71510396 100.55176013 471.38209086 98.47039575 469.34989929 95.31161499 C464.6525669 90.73560986 458.31032944 92.00633218 452.13066101 91.97225952 C449.95740823 91.95507105 447.78568716 91.91118747 445.61283875 91.86703491 C444.22548012 91.85690528 442.83810858 91.84839002 441.45072937 91.84164429 C440.19091248 91.82706177 438.93109558 91.81247925 437.63310242 91.79745483 C433.67261602 92.34787981 432.05831249 93.47943731 429.25151062 96.26742554 Z M373.25151062 117.26742554 C371.68904853 120.39234972 372.04652935 123.72937987 372.01322937 127.16195679 C372.00515762 127.94632614 371.99708588 128.7306955 371.98876953 129.53883362 C371.97493 131.20070181 371.96420725 132.8625984 371.9563446 134.52450562 C371.93914709 137.05980689 371.89526407 139.59379868 371.85112 142.12875366 C371.84099147 143.74397845 371.83247586 145.35921433 371.82572937 146.97445679 C371.80822128 147.72983231 371.7907132 148.48520782 371.77267456 149.26347351 C371.78791728 152.98309094 372.12093038 155.06445532 374.15312195 158.22323608 C378.85045434 162.79924122 385.1926918 161.52851889 391.37236023 161.56259155 C393.54561301 161.57978003 395.71733408 161.62366361 397.8901825 161.66781616 C399.27754112 161.67794579 400.66491266 161.68646105 402.05229187 161.69320679 C403.31210876 161.70778931 404.57192566 161.72237183 405.86991882 161.73739624 C409.83040522 161.18697127 411.44470875 160.05541376 414.25151062 157.26742554 C415.81397271 154.14250135 415.45649189 150.80547121 415.48979187 147.37289429 C415.49786362 146.58852493 415.50593536 145.80415558 415.51425171 144.99601746 C415.52809124 143.33414927 415.53881399 141.67225267 415.54667664 140.01034546 C415.56387415 137.47504419 415.60775717 134.94105239 415.65190125 132.40609741 C415.66202977 130.79087262 415.67054538 129.17563675 415.67729187 127.56039429 C415.69479996 126.80501877 415.71230804 126.04964325 415.73034668 125.27137756 C415.71510396 121.55176013 415.38209086 119.47039575 413.34989929 116.31161499 C408.6525669 111.73560986 402.31032944 113.00633218 396.13066101 112.97225952 C393.95740823 112.95507105 391.78568716 112.91118747 389.61283875 112.86703491 C388.22548012 112.85690528 386.83810858 112.84839002 385.45072937 112.84164429 C384.19091248 112.82706177 382.93109558 112.81247925 381.63310242 112.79745483 C377.67261602 113.34787981 376.05831249 114.47943731 373.25151062 117.26742554 Z M1.25151062 146.26742554 C1.25151062 162.76742554 1.25151062 179.26742554 1.25151062 196.26742554 C41.51151062 196.26742554 81.77151062 196.26742554 123.25151062 196.26742554 C123.25151062 184.38742554 123.25151062 172.50742554 123.25151062 160.26742554 C116.06627625 160.22875366 116.06627625 160.22875366 108.73588562 160.18930054 C105.70067585 160.16413296 102.66556583 160.13780108 99.63041687 160.10726929 C94.81319298 160.05892195 89.99619996 160.0148824 85.17875671 159.99642944 C81.29461821 159.98128164 77.41108374 159.94687068 73.52721405 159.89911652 C72.04571534 159.88428312 70.5641304 159.87638339 69.08255768 159.87554169 C67.00638491 159.87317593 64.93188685 159.84613347 62.85600281 159.81332397 C61.08395477 159.80000031 61.08395477 159.80000031 59.27610779 159.78640747 C56.25151062 159.26742554 56.25151062 159.26742554 53.90122986 157.79580688 C52.25151062 155.26742554 52.25151062 155.26742554 51.25151062 146.26742554 C34.75151062 146.26742554 18.25151062 146.26742554 1.25151062 146.26742554 Z M429.25151062 160.26742554 C427.82923303 163.11198071 428.11566042 165.51866671 428.1043396 168.70036316 C428.10066291 169.36824677 428.09698622 170.03613037 428.09319812 170.72425288 C428.08214357 172.97278231 428.07831447 175.22126555 428.07450867 177.46981812 C428.06824538 179.07774503 428.0615987 180.68567049 428.05459595 182.29359436 C428.03717439 186.6697001 428.02663116 191.0457949 428.01839042 195.42192674 C428.01324298 198.15473194 428.00716715 200.88753373 428.00087929 203.62033653 C427.98182445 212.16705033 427.96759363 220.71375546 427.95926732 229.26048642 C427.94949114 239.13301598 427.92316297 249.00532155 427.88276643 258.87777215 C427.85262904 266.50415643 427.83780073 274.13047641 427.83448631 281.75691909 C427.8321332 286.31397186 427.82313908 290.87078542 427.79802513 295.42777443 C427.7747807 299.71484557 427.77049641 304.00151939 427.78078651 308.28863716 C427.78128287 309.86202057 427.77493319 311.43542329 427.76123047 313.0087471 C427.74356349 315.15748821 427.7505902 317.30479536 427.76376343 319.45353699 C427.76137507 320.65572278 427.75898672 321.85790857 427.75652599 323.09652424 C428.34996348 326.89812046 429.58458145 328.54687022 432.25151062 331.26742554 C436.63275893 333.45804969 442.50482406 332.53575356 447.37236023 332.56259155 C449.54561301 332.57978003 451.71733408 332.62366361 453.8901825 332.66781616 C455.27754112 332.67794579 456.66491266 332.68646105 458.05229187 332.69320679 C459.31210876 332.70778931 460.57192566 332.72237183 461.86991882 332.73739624 C465.83040522 332.18697127 467.44470875 331.05541376 470.25151062 328.26742554 C471.67378821 325.42287036 471.38736082 323.01618437 471.39868164 319.83448792 C471.40235833 319.16660431 471.40603502 318.4987207 471.40982312 317.81059819 C471.42087767 315.56206877 471.42470677 313.31358552 471.42851257 311.06503296 C471.43477586 309.45710604 471.44142254 307.84918058 471.44842529 306.24125671 C471.46584685 301.86515098 471.47639008 297.48905617 471.48463082 293.11292434 C471.48977826 290.38011913 471.49585409 287.64731734 471.50214195 284.91451454 C471.52119679 276.36780075 471.53542761 267.82109561 471.54375392 259.27436465 C471.5535301 249.4018351 471.57985827 239.52952953 471.62025481 229.65707892 C471.6503922 222.03069465 471.66522051 214.40437467 471.66853493 206.77793199 C471.67088804 202.22087922 471.67988216 197.66406565 471.70499611 193.10707664 C471.72824054 188.8200055 471.73252483 184.53333168 471.72223473 180.24621391 C471.72173838 178.67283051 471.72808805 177.09942779 471.74179077 175.52610397 C471.75945775 173.37736286 471.75243104 171.23005571 471.73925781 169.08131409 C471.74164617 167.87912829 471.74403452 166.6769425 471.74649525 165.43832684 C471.15305776 161.63673062 469.91843979 159.98798086 467.25151062 157.26742554 C462.87026231 155.07680138 456.99819718 155.99909752 452.13066101 155.97225952 C449.95740823 155.95507105 447.78568716 155.91118747 445.61283875 155.86703491 C444.22548012 155.85690528 442.83810858 155.84839002 441.45072937 155.84164429 C440.19091248 155.82706177 438.93109558 155.81247925 437.63310242 155.79745483 C433.67261602 156.34787981 432.05831249 157.47943731 429.25151062 160.26742554 Z M373.25151062 179.26742554 C371.68904853 182.39234972 372.04652935 185.72937987 372.01322937 189.16195679 C372.00515762 189.94632614 371.99708588 190.7306955 371.98876953 191.53883362 C371.97493 193.20070181 371.96420725 194.8625984 371.9563446 196.52450562 C371.93914709 199.05980689 371.89526407 201.59379868 371.85112 204.12875366 C371.84099147 205.74397845 371.83247586 207.35921433 371.82572937 208.97445679 C371.80822128 209.72983231 371.7907132 210.48520782 371.77267456 211.26347351 C371.78791728 214.98309094 372.12093038 217.06445532 374.15312195 220.22323608 C378.85045434 224.79924122 385.1926918 223.52851889 391.37236023 223.56259155 C393.54561301 223.57978003 395.71733408 223.62366361 397.8901825 223.66781616 C399.27754112 223.67794579 400.66491266 223.68646105 402.05229187 223.69320679 C403.31210876 223.70778931 404.57192566 223.72237183 405.86991882 223.73739624 C409.83040522 223.18697127 411.44470875 222.05541376 414.25151062 219.26742554 C415.81397271 216.14250135 415.45649189 212.80547121 415.48979187 209.37289429 C415.49786362 208.58852493 415.50593536 207.80415558 415.51425171 206.99601746 C415.52809124 205.33414927 415.53881399 203.67225267 415.54667664 202.01034546 C415.56387415 199.47504419 415.60775717 196.94105239 415.65190125 194.40609741 C415.66202977 192.79087262 415.67054538 191.17563675 415.67729187 189.56039429 C415.69479996 188.80501877 415.71230804 188.04964325 415.73034668 187.27137756 C415.71510396 183.55176013 415.38209086 181.47039575 413.34989929 178.31161499 C408.6525669 173.73560986 402.31032944 175.00633218 396.13066101 174.97225952 C393.95740823 174.95507105 391.78568716 174.91118747 389.61283875 174.86703491 C388.22548012 174.85690528 386.83810858 174.84839002 385.45072937 174.84164429 C384.19091248 174.82706177 382.93109558 174.81247925 381.63310242 174.79745483 C377.67261602 175.34787981 376.05831249 176.47943731 373.25151062 179.26742554 Z M1.25151062 209.26742554 C1.25151062 225.76742554 1.25151062 242.26742554 1.25151062 259.26742554 C17.75151062 259.26742554 34.25151062 259.26742554 51.25151062 259.26742554 C51.58151062 256.29742554 51.91151062 253.32742554 52.25151062 250.26742554 C53.40258789 247.73904419 53.40258789 247.73904419 55.25151062 246.26742554 C58.19381714 245.7484436 58.19381714 245.7484436 61.83427429 245.7215271 C62.49795517 245.71118942 63.16163605 245.70085175 63.84542847 245.69020081 C66.03702503 245.66072532 68.2277 245.65927276 70.41947937 245.65805054 C71.93978644 245.64307193 73.46007722 245.62634545 74.98034668 245.60794067 C78.98014566 245.5642183 82.97972514 245.54425752 86.97972107 245.52920532 C91.77982073 245.50621326 96.57967773 245.45377815 101.37958527 245.40626526 C108.6702905 245.33739987 115.96029849 245.30599318 123.25151062 245.26742554 C123.25151062 233.38742554 123.25151062 221.50742554 123.25151062 209.26742554 C82.99151062 209.26742554 42.73151062 209.26742554 1.25151062 209.26742554 Z M373.25151062 240.26742554 C371.68904853 243.39234972 372.04652935 246.72937987 372.01322937 250.16195679 C372.00515762 250.94632614 371.99708588 251.7306955 371.98876953 252.53883362 C371.97493 254.20070181 371.96420725 255.8625984 371.9563446 257.52450562 C371.93914709 260.05980689 371.89526407 262.59379868 371.85112 265.12875366 C371.84099147 266.74397845 371.83247586 268.35921433 371.82572937 269.97445679 C371.80822128 270.72983231 371.7907132 271.48520782 371.77267456 272.26347351 C371.78791728 275.98309094 372.12093038 278.06445532 374.15312195 281.22323608 C378.85045434 285.79924122 385.1926918 284.52851889 391.37236023 284.56259155 C393.54561301 284.57978003 395.71733408 284.62366361 397.8901825 284.66781616 C399.27754112 284.67794579 400.66491266 284.68646105 402.05229187 284.69320679 C403.31210876 284.70778931 404.57192566 284.72237183 405.86991882 284.73739624 C409.83040522 284.18697127 411.44470875 283.05541376 414.25151062 280.26742554 C415.81397271 277.14250135 415.45649189 273.80547121 415.48979187 270.37289429 C415.49786362 269.58852493 415.50593536 268.80415558 415.51425171 267.99601746 C415.52809124 266.33414927 415.53881399 264.67225267 415.54667664 263.01034546 C415.56387415 260.47504419 415.60775717 257.94105239 415.65190125 255.40609741 C415.66202977 253.79087262 415.67054538 252.17563675 415.67729187 250.56039429 C415.69479996 249.80501877 415.71230804 249.04964325 415.73034668 248.27137756 C415.71510396 244.55176013 415.38209086 242.47039575 413.34989929 239.31161499 C408.6525669 234.73560986 402.31032944 236.00633218 396.13066101 235.97225952 C393.95740823 235.95507105 391.78568716 235.91118747 389.61283875 235.86703491 C388.22548012 235.85690528 386.83810858 235.84839002 385.45072937 235.84164429 C384.19091248 235.82706177 382.93109558 235.81247925 381.63310242 235.79745483 C377.67261602 236.34787981 376.05831249 237.47943731 373.25151062 240.26742554 Z M1.25151062 272.26742554 C1.25151062 288.76742554 1.25151062 305.26742554 1.25151062 322.26742554 C17.75151062 322.26742554 34.25151062 322.26742554 51.25151062 322.26742554 C51.74651062 317.31742554 51.74651062 317.31742554 52.25151062 312.26742554 C56.6299013 308.98363253 57.62937631 308.88417492 62.85600281 308.83505249 C63.83711281 308.81976501 63.83711281 308.81976501 64.83804321 308.8041687 C66.99157815 308.77406843 69.14466808 308.76477785 71.29838562 308.75570679 C72.79484024 308.7388578 74.29128072 308.72070725 75.78770447 308.7013092 C79.72003259 308.65382651 83.6523034 308.6240062 87.58482361 308.59786987 C91.60013649 308.56805545 95.61525195 308.52152819 99.63041687 308.47640991 C107.50403418 308.3903964 115.37763094 308.32458791 123.25151062 308.26742554 C123.25151062 301.00742554 123.25151062 293.74742554 123.25151062 286.26742554 C121.24282898 286.25807983 119.23414734 286.24873413 117.16459656 286.23910522 C110.52674905 286.20533289 103.88921237 286.14978287 97.25161362 286.0835228 C93.22731143 286.04401887 89.20322899 286.01184497 85.17875671 285.99642944 C81.29461821 285.98128164 77.41108374 285.94687068 73.52721405 285.89911652 C72.04571534 285.88428312 70.5641304 285.87638339 69.08255768 285.87554169 C67.00638491 285.87317593 64.93188685 285.84613347 62.85600281 285.81332397 C61.08395477 285.80000031 61.08395477 285.80000031 59.27610779 285.78640747 C56.25151062 285.26742554 56.25151062 285.26742554 53.90122986 283.79580688 C52.25151062 281.26742554 52.25151062 281.26742554 51.25151062 272.26742554 C34.75151062 272.26742554 18.25151062 272.26742554 1.25151062 272.26742554 Z M373.25151062 302.26742554 C371.68904853 305.39234972 372.04652935 308.72937987 372.01322937 312.16195679 C372.00515762 312.94632614 371.99708588 313.7306955 371.98876953 314.53883362 C371.97493 316.20070181 371.96420725 317.8625984 371.9563446 319.52450562 C371.93914709 322.05980689 371.89526407 324.59379868 371.85112 327.12875366 C371.84099147 328.74397845 371.83247586 330.35921433 371.82572937 331.97445679 C371.80822128 332.72983231 371.7907132 333.48520782 371.77267456 334.26347351 C371.78791728 337.98309094 372.12093038 340.06445532 374.15312195 343.22323608 C378.85045434 347.79924122 385.1926918 346.52851889 391.37236023 346.56259155 C393.54561301 346.57978003 395.71733408 346.62366361 397.8901825 346.66781616 C399.27754112 346.67794579 400.66491266 346.68646105 402.05229187 346.69320679 C403.31210876 346.70778931 404.57192566 346.72237183 405.86991882 346.73739624 C409.83040522 346.18697127 411.44470875 345.05541376 414.25151062 342.26742554 C415.81397271 339.14250135 415.45649189 335.80547121 415.48979187 332.37289429 C415.49786362 331.58852493 415.50593536 330.80415558 415.51425171 329.99601746 C415.52809124 328.33414927 415.53881399 326.67225267 415.54667664 325.01034546 C415.56387415 322.47504419 415.60775717 319.94105239 415.65190125 317.40609741 C415.66202977 315.79087262 415.67054538 314.17563675 415.67729187 312.56039429 C415.69479996 311.80501877 415.71230804 311.04964325 415.73034668 310.27137756 C415.71510396 306.55176013 415.38209086 304.47039575 413.34989929 301.31161499 C408.6525669 296.73560986 402.31032944 298.00633218 396.13066101 297.97225952 C393.95740823 297.95507105 391.78568716 297.91118747 389.61283875 297.86703491 C388.22548012 297.85690528 386.83810858 297.84839002 385.45072937 297.84164429 C384.19091248 297.82706177 382.93109558 297.81247925 381.63310242 297.79745483 C377.67261602 298.34787981 376.05831249 299.47943731 373.25151062 302.26742554 Z M1.25151062 335.26742554 C1.25151062 351.43742554 1.25151062 367.60742554 1.25151062 384.26742554 C17.75151062 384.26742554 34.25151062 384.26742554 51.25151062 384.26742554 C51.58151062 381.29742554 51.91151062 378.32742554 52.25151062 375.26742554 C53.90122986 372.73904419 53.90122986 372.73904419 56.25151062 371.26742554 C59.27610779 370.7484436 59.27610779 370.7484436 62.85600281 370.7215271 C63.51007614 370.71118942 64.16414948 370.70085175 64.83804321 370.69020081 C66.99174257 370.66079279 69.14450135 370.6592742 71.29838562 370.65805054 C72.79484345 370.64306736 74.29128474 370.62633992 75.78770447 370.60794067 C79.72008528 370.56426952 83.65224303 370.54426886 87.58482361 370.52920532 C91.60015552 370.50963318 95.61524657 370.46766337 99.63041687 370.42758179 C107.50408125 370.3522821 115.3775713 370.30406026 123.25151062 370.26742554 C123.25151062 363.33742554 123.25151062 356.40742554 123.25151062 349.26742554 C121.24282898 349.25807983 119.23414734 349.24873413 117.16459656 349.23910522 C110.52674905 349.20533289 103.88921237 349.14978287 97.25161362 349.0835228 C93.22731143 349.04401887 89.20322899 349.01184497 85.17875671 348.99642944 C81.29461821 348.98128164 77.41108374 348.94687068 73.52721405 348.89911652 C72.04571534 348.88428312 70.5641304 348.87638339 69.08255768 348.87554169 C67.00638491 348.87317593 64.93188685 348.84613347 62.85600281 348.81332397 C61.08395477 348.80000031 61.08395477 348.80000031 59.27610779 348.78640747 C56.25151062 348.26742554 56.25151062 348.26742554 53.90122986 346.79580688 C52.25151062 344.26742554 52.25151062 344.26742554 51.25151062 335.26742554 C34.75151062 335.26742554 18.25151062 335.26742554 1.25151062 335.26742554 Z M429.25151062 350.26742554 C427.68904853 353.39234972 428.04652935 356.72937987 428.01322937 360.16195679 C428.00515762 360.94632614 427.99708588 361.7306955 427.98876953 362.53883362 C427.97493 364.20070181 427.96420725 365.8625984 427.9563446 367.52450562 C427.93914709 370.05980689 427.89526407 372.59379868 427.85112 375.12875366 C427.84099147 376.74397845 427.83247586 378.35921433 427.82572937 379.97445679 C427.80822128 380.72983231 427.7907132 381.48520782 427.77267456 382.26347351 C427.78791728 385.98309094 428.12093038 388.06445532 430.15312195 391.22323608 C434.85045434 395.79924122 441.1926918 394.52851889 447.37236023 394.56259155 C449.54561301 394.57978003 451.71733408 394.62366361 453.8901825 394.66781616 C455.27754112 394.67794579 456.66491266 394.68646105 458.05229187 394.69320679 C459.31210876 394.70778931 460.57192566 394.72237183 461.86991882 394.73739624 C465.83040522 394.18697127 467.44470875 393.05541376 470.25151062 390.26742554 C471.81397271 387.14250135 471.45649189 383.80547121 471.48979187 380.37289429 C471.49786362 379.58852493 471.50593536 378.80415558 471.51425171 377.99601746 C471.52809124 376.33414927 471.53881399 374.67225267 471.54667664 373.01034546 C471.56387415 370.47504419 471.60775717 367.94105239 471.65190125 365.40609741 C471.66202977 363.79087262 471.67054538 362.17563675 471.67729187 360.56039429 C471.69479996 359.80501877 471.71230804 359.04964325 471.73034668 358.27137756 C471.71510396 354.55176013 471.38209086 352.47039575 469.34989929 349.31161499 C464.6525669 344.73560986 458.31032944 346.00633218 452.13066101 345.97225952 C449.95740823 345.95507105 447.78568716 345.91118747 445.61283875 345.86703491 C444.22548012 345.85690528 442.83810858 345.84839002 441.45072937 345.84164429 C440.19091248 345.82706177 438.93109558 345.81247925 437.63310242 345.79745483 C433.67261602 346.34787981 432.05831249 347.47943731 429.25151062 350.26742554 Z M373.25151062 364.26742554 C371.68904853 367.39234972 372.04652935 370.72937987 372.01322937 374.16195679 C372.00515762 374.94632614 371.99708588 375.7306955 371.98876953 376.53883362 C371.97493 378.20070181 371.96420725 379.8625984 371.9563446 381.52450562 C371.93914709 384.05980689 371.89526407 386.59379868 371.85112 389.12875366 C371.84099147 390.74397845 371.83247586 392.35921433 371.82572937 393.97445679 C371.80822128 394.72983231 371.7907132 395.48520782 371.77267456 396.26347351 C371.78791728 399.98309094 372.12093038 402.06445532 374.15312195 405.22323608 C378.85045434 409.79924122 385.1926918 408.52851889 391.37236023 408.56259155 C393.54561301 408.57978003 395.71733408 408.62366361 397.8901825 408.66781616 C399.27754112 408.67794579 400.66491266 408.68646105 402.05229187 408.69320679 C403.31210876 408.70778931 404.57192566 408.72237183 405.86991882 408.73739624 C409.83040522 408.18697127 411.44470875 407.05541376 414.25151062 404.26742554 C415.81397271 401.14250135 415.45649189 397.80547121 415.48979187 394.37289429 C415.49786362 393.58852493 415.50593536 392.80415558 415.51425171 391.99601746 C415.52809124 390.33414927 415.53881399 388.67225267 415.54667664 387.01034546 C415.56387415 384.47504419 415.60775717 381.94105239 415.65190125 379.40609741 C415.66202977 377.79087262 415.67054538 376.17563675 415.67729187 374.56039429 C415.69479996 373.80501877 415.71230804 373.04964325 415.73034668 372.27137756 C415.71510396 368.55176013 415.38209086 366.47039575 413.34989929 363.31161499 C408.6525669 358.73560986 402.31032944 360.00633218 396.13066101 359.97225952 C393.95740823 359.95507105 391.78568716 359.91118747 389.61283875 359.86703491 C388.22548012 359.85690528 386.83810858 359.84839002 385.45072937 359.84164429 C384.19091248 359.82706177 382.93109558 359.81247925 381.63310242 359.79745483 C377.67261602 360.34787981 376.05831249 361.47943731 373.25151062 364.26742554 Z M1.25151062 397.26742554 C1.25151062 413.76742554 1.25151062 430.26742554 1.25151062 447.26742554 C41.51151062 447.26742554 81.77151062 447.26742554 123.25151062 447.26742554 C123.25151062 435.38742554 123.25151062 423.50742554 123.25151062 411.26742554 C116.06627625 411.22875366 116.06627625 411.22875366 108.73588562 411.18930054 C105.70067585 411.16413296 102.66556583 411.13780108 99.63041687 411.10726929 C94.81319298 411.05892195 89.99619996 411.0148824 85.17875671 410.99642944 C81.29461821 410.98128164 77.41108374 410.94687068 73.52721405 410.89911652 C72.04571534 410.88428312 70.5641304 410.87638339 69.08255768 410.87554169 C67.00638491 410.87317593 64.93188685 410.84613347 62.85600281 410.81332397 C61.08395477 410.80000031 61.08395477 410.80000031 59.27610779 410.78640747 C56.25151062 410.26742554 56.25151062 410.26742554 53.90122986 408.79580688 C52.25151062 406.26742554 52.25151062 406.26742554 51.25151062 397.26742554 C34.75151062 397.26742554 18.25151062 397.26742554 1.25151062 397.26742554 Z " fill="#B6ACF8" transform="translate(20.748489379882813,0.732574462890625)"/>
</svg>
